<svg width="22" height="27" viewBox="0 0 22 27" fill="none" xmlns="http://www.w3.org/2000/svg">
<g clip-path="url(#clip0_12_76)">
<rect width="22" height="25.7575" transform="translate(0 0.443848)" fill="white"/>
<g filter="url(#filter0_d_12_76)">
<path d="M0 6.88326C0 5.10489 1.23105 3.66357 2.75 3.66357H19.25C20.7668 3.66357 22 5.10489 22 6.88326V19.762C22 21.5378 20.7668 22.9817 19.25 22.9817H2.75C1.23105 22.9817 0 21.5378 0 19.762V6.88326ZM2.0625 6.88326V7.99505L9.47461 15.1186C10.3598 15.9738 11.6402 15.9738 12.5254 15.1186L19.9375 7.99505V6.83798C19.9375 6.44055 19.6281 6.03306 19.25 6.03306H2.75C2.37016 6.03306 2.0625 6.44055 2.0625 6.83798V6.88326ZM2.0625 11.1192V19.762C2.0625 20.2047 2.37016 20.5669 2.75 20.5669H19.25C19.6281 20.5669 19.9375 20.2047 19.9375 19.762V11.1192L13.8359 16.985C12.1859 18.5697 9.81406 18.5697 8.12539 16.985L2.0625 11.1192Z" fill="#CFCFCF"/>
</g>
</g>
<defs>
<filter id="filter0_d_12_76" x="-4" y="3.66357" width="30" height="27.3179" filterUnits="userSpaceOnUse" color-interpolation-filters="sRGB">
<feFlood flood-opacity="0" result="BackgroundImageFix"/>
<feColorMatrix in="SourceAlpha" type="matrix" values="0 0 0 0 0 0 0 0 0 0 0 0 0 0 0 0 0 0 127 0" result="hardAlpha"/>
<feOffset dy="4"/>
<feGaussianBlur stdDeviation="2"/>
<feComposite in2="hardAlpha" operator="out"/>
<feColorMatrix type="matrix" values="0 0 0 0 0 0 0 0 0 0 0 0 0 0 0 0 0 0 0.25 0"/>
<feBlend mode="normal" in2="BackgroundImageFix" result="effect1_dropShadow_12_76"/>
<feBlend mode="normal" in="SourceGraphic" in2="effect1_dropShadow_12_76" result="shape"/>
</filter>
<clipPath id="clip0_12_76">
<rect width="22" height="25.7575" fill="white" transform="translate(0 0.443848)"/>
</clipPath>
</defs>
</svg>
