<?xml version="1.0" encoding="UTF-8"?>
<!DOCTYPE svg PUBLIC "-//W3C//DTD SVG 1.1//EN" "http://www.w3.org/Graphics/SVG/1.1/DTD/svg11.dtd">
<svg xmlns="http://www.w3.org/2000/svg" version="1.1" width="350px" height="328px" style="shape-rendering:geometricPrecision; text-rendering:geometricPrecision; image-rendering:optimizeQuality; fill-rule:evenodd; clip-rule:evenodd" xmlns:xlink="http://www.w3.org/1999/xlink">
<g><path style="opacity:1" fill="#fefefe" d="M -0.5,-0.5 C 116.167,-0.5 232.833,-0.5 349.5,-0.5C 349.5,108.833 349.5,218.167 349.5,327.5C 232.833,327.5 116.167,327.5 -0.5,327.5C -0.5,218.167 -0.5,108.833 -0.5,-0.5 Z"/></g>
<g><path style="opacity:1" fill="#1aa699" d="M 222.5,111.5 C 222.5,153.5 222.5,195.5 222.5,237.5C 221.5,237.5 220.5,237.5 219.5,237.5C 200.132,231.787 180.799,232.287 161.5,239C 155.738,241.881 150.071,244.714 144.5,247.5C 144.333,200.499 144.5,153.499 145,106.5C 156.633,97.6792 168.8,89.6792 181.5,82.5C 182.73,97.5067 182.73,112.507 181.5,127.5C 168.945,128.713 159.945,135.046 154.5,146.5C 173.833,147.833 193.167,147.833 212.5,146.5C 206.991,135.498 198.157,128.831 186,126.5C 184.253,111.868 184.087,97.2017 185.5,82.5C 197.635,90.1366 209.635,97.9699 221.5,106C 222.406,107.699 222.739,109.533 222.5,111.5 Z"/></g>
<g><path style="opacity:1" fill="#e9fbf6" d="M 222.5,111.5 C 223.499,153.663 223.832,195.997 223.5,238.5C 221.901,238.768 220.568,238.434 219.5,237.5C 220.5,237.5 221.5,237.5 222.5,237.5C 222.5,195.5 222.5,153.5 222.5,111.5 Z"/></g>
<g><path style="opacity:1" fill="#c14254" d="M 138.5,110.5 C 138.56,109.957 138.893,109.624 139.5,109.5C 140.831,156.332 140.831,202.998 139.5,249.5C 139.832,202.997 139.499,156.664 138.5,110.5 Z"/></g>
<g><path style="opacity:1" fill="#fbb731" d="M 303.5,160.5 C 303.5,199.833 303.5,239.167 303.5,278.5C 291.322,278.172 279.322,278.505 267.5,279.5C 267.5,280.167 267.5,280.833 267.5,281.5C 273.929,288.659 280.595,295.659 287.5,302.5C 284.167,305.833 280.833,309.167 277.5,312.5C 270.532,313.497 263.532,313.83 256.5,313.5C 256.038,311.243 255.038,309.243 253.5,307.5C 255.149,305.35 256.982,303.35 259,301.5C 260.436,298.866 261.269,296.033 261.5,293C 260.257,286.196 257.924,279.863 254.5,274C 254.682,271.422 255.682,270.922 257.5,272.5C 262.268,274.608 265.934,273.275 268.5,268.5C 270.142,262.286 267.642,258.953 261,258.5C 258.453,258.762 255.953,259.262 253.5,260C 252.944,260.383 252.611,260.883 252.5,261.5C 250.268,264.076 248.935,267.076 248.5,270.5C 250.146,276.419 251.48,282.419 252.5,288.5C 252.746,292.338 251.58,295.672 249,298.5C 249.379,293.578 247.879,289.412 244.5,286C 238.5,283.333 232.5,280.667 226.5,278C 232.153,277.697 237.486,278.864 242.5,281.5C 243.209,282.404 244.209,282.737 245.5,282.5C 245.334,275.825 245.5,269.158 246,262.5C 247.372,261.09 248.205,259.423 248.5,257.5C 250.099,255.691 252.099,254.358 254.5,253.5C 250.509,251.037 246.176,249.371 241.5,248.5C 236.924,245.036 232.09,242.036 227,239.5C 226.5,196.501 226.333,153.501 226.5,110.5C 252.793,126.062 278.46,142.729 303.5,160.5 Z"/></g>
<g><path style="opacity:1" fill="#e4284c" d="M 138.5,110.5 C 139.499,156.664 139.832,202.997 139.5,249.5C 136.851,250.824 134.184,252.158 131.5,253.5C 134.937,254.636 137.771,256.636 140,259.5C 140.667,269.167 140.667,278.833 140,288.5C 139.722,289.416 139.222,290.082 138.5,290.5C 137.833,292.5 137.167,294.5 136.5,296.5C 133.72,290.152 133.887,283.819 137,277.5C 137.812,273.311 137.645,269.311 136.5,265.5C 133.408,259.4 128.408,257.233 121.5,259C 116.233,263.458 116.233,267.958 121.5,272.5C 124.988,273.92 128.322,273.586 131.5,271.5C 132.429,272.689 132.762,274.022 132.5,275.5C 131.208,278.737 129.374,281.737 127,284.5C 125.125,289.875 125.125,295.209 127,300.5C 129.35,302.683 131.517,305.016 133.5,307.5C 131.962,309.243 130.962,311.243 130.5,313.5C 124.5,313.5 118.5,313.5 112.5,313.5C 112.5,311.167 112.5,308.833 112.5,306.5C 113.5,305.5 114.5,304.5 115.5,303.5C 116.669,297.671 117.669,291.671 118.5,285.5C 118.66,283.645 117.993,282.312 116.5,281.5C 114.925,279.886 114.259,277.886 114.5,275.5C 115.481,270.871 115.648,266.204 115,261.5C 114.052,259.43 112.552,257.93 110.5,257C 98.0911,256.188 85.7577,256.355 73.5,257.5C 72.5318,255.393 72.1984,253.059 72.5,250.5C 76.7016,250.817 80.7016,250.483 84.5,249.5C 83.5003,245.501 82.5003,241.501 81.5,237.5C 81.5905,234.848 80.9238,232.515 79.5,230.5C 79.4828,228.435 79.1495,226.435 78.5,224.5C 73.6946,223.513 68.6946,223.179 63.5,223.5C 63.5,202.167 63.5,180.833 63.5,159.5C 88.6708,143.415 113.671,127.082 138.5,110.5 Z"/></g>
<g><path style="opacity:1" fill="#fcecc9" d="M 303.5,160.5 C 305.494,199.819 306.161,239.486 305.5,279.5C 292.833,279.5 280.167,279.5 267.5,279.5C 279.322,278.505 291.322,278.172 303.5,278.5C 303.5,239.167 303.5,199.833 303.5,160.5 Z"/></g>
<g><path style="opacity:1" fill="#da7c8d" d="M 63.5,159.5 C 63.5,180.833 63.5,202.167 63.5,223.5C 68.6946,223.179 73.6946,223.513 78.5,224.5C 73.1667,224.5 67.8333,224.5 62.5,224.5C 62.1693,202.66 62.5027,180.994 63.5,159.5 Z"/></g>
<g><path style="opacity:1" fill="#fabfd0" d="M 79.5,230.5 C 80.9238,232.515 81.5905,234.848 81.5,237.5C 80.0762,235.485 79.4095,233.152 79.5,230.5 Z"/></g>
<g><path style="opacity:1" fill="#d84761" d="M 67.5,249.5 C 68.3238,253.312 68.8238,257.312 69,261.5C 71.2435,257.869 72.0768,253.869 71.5,249.5C 75.8333,249.5 80.1667,249.5 84.5,249.5C 80.7016,250.483 76.7016,250.817 72.5,250.5C 72.1984,253.059 72.5318,255.393 73.5,257.5C 70.7727,262.035 69.7727,267.035 70.5,272.5C 68.3983,265.111 67.3983,257.444 67.5,249.5 Z"/></g>
<g><path style="opacity:1" fill="#fdfbfc" d="M 114.5,275.5 C 113.549,276.919 113.216,278.585 113.5,280.5C 110.085,280.261 106.919,280.928 104,282.5C 96.3068,279.94 88.6401,279.94 81,282.5C 77.9016,281.184 74.7349,280.184 71.5,279.5C 71.8016,276.941 71.4682,274.607 70.5,272.5C 69.7727,267.035 70.7727,262.035 73.5,257.5C 85.7577,256.355 98.0911,256.188 110.5,257C 112.552,257.93 114.052,259.43 115,261.5C 115.648,266.204 115.481,270.871 114.5,275.5 Z"/></g>
<g><path style="opacity:1" fill="#fce6e8" d="M 136.5,265.5 C 135.292,264.766 133.959,264.433 132.5,264.5C 132.715,266.179 132.048,267.179 130.5,267.5C 131.169,262 128.835,259.833 123.5,261C 120.833,264 120.833,267 123.5,270C 126.171,270.833 128.504,270.333 130.5,268.5C 130.821,270.048 131.821,270.715 133.5,270.5C 133.784,272.415 133.451,274.081 132.5,275.5C 132.762,274.022 132.429,272.689 131.5,271.5C 128.322,273.586 124.988,273.92 121.5,272.5C 116.233,267.958 116.233,263.458 121.5,259C 128.408,257.233 133.408,259.4 136.5,265.5 Z"/></g>
<g><path style="opacity:1" fill="#e25e72" d="M 130.5,267.5 C 130.5,267.833 130.5,268.167 130.5,268.5C 128.504,270.333 126.171,270.833 123.5,270C 120.833,267 120.833,264 123.5,261C 128.835,259.833 131.169,262 130.5,267.5 Z"/></g>
<g><path style="opacity:1" fill="#fbf2f3" d="M 124.5,262.5 C 128.35,262.701 129.35,264.534 127.5,268C 123.537,268.118 122.537,266.284 124.5,262.5 Z"/></g>
<g><path style="opacity:1" fill="#f8c466" d="M 258.5,270.5 C 257.094,270.027 256.427,269.027 256.5,267.5C 256.891,259.936 260.057,258.603 266,263.5C 266.335,268.662 263.835,270.995 258.5,270.5 Z"/></g>
<g><path style="opacity:1" fill="#faf8e9" d="M 258.5,262.5 C 263.159,262.015 264.492,263.848 262.5,268C 261.207,268.49 259.873,268.657 258.5,268.5C 258.5,266.5 258.5,264.5 258.5,262.5 Z"/></g>
<g><path style="opacity:1" fill="#fcf3e0" d="M 257.5,272.5 C 259.527,272.662 261.527,272.495 263.5,272C 261.618,271.802 259.952,271.302 258.5,270.5C 263.835,270.995 266.335,268.662 266,263.5C 260.057,258.603 256.891,259.936 256.5,267.5C 255.698,266.048 255.198,264.382 255,262.5C 254.329,261.748 253.496,261.414 252.5,261.5C 252.611,260.883 252.944,260.383 253.5,260C 255.953,259.262 258.453,258.762 261,258.5C 267.642,258.953 270.142,262.286 268.5,268.5C 265.934,273.275 262.268,274.608 257.5,272.5 Z"/></g>
<g><path style="opacity:1" fill="#f7ca76" d="M 248.5,257.5 C 248.205,259.423 247.372,261.09 246,262.5C 245.5,269.158 245.334,275.825 245.5,282.5C 244.209,282.737 243.209,282.404 242.5,281.5C 243.497,281.53 244.164,281.03 244.5,280C 243.408,274.874 243.241,269.707 244,264.5C 244.938,261.743 246.438,259.41 248.5,257.5 Z"/></g>
<g><path style="opacity:1" fill="#c5eee3" d="M 207.5,274.5 C 194.815,274.345 182.149,274.678 169.5,275.5C 176.599,273.956 183.932,273.29 191.5,273.5C 197.011,273.501 202.344,273.834 207.5,274.5 Z"/></g>
<g><path style="opacity:1" fill="#5eab9e" d="M 207.5,274.5 C 212.438,275.392 217.438,275.726 222.5,275.5C 222.719,276.675 222.386,277.675 221.5,278.5C 219.224,277.787 216.891,277.287 214.5,277C 195.743,275.87 177.076,276.537 158.5,279C 153.597,279.869 149.097,281.702 145,284.5C 144.51,283.207 144.343,281.873 144.5,280.5C 152.606,277.801 160.94,276.134 169.5,275.5C 182.149,274.678 194.815,274.345 207.5,274.5 Z"/></g>
<g><path style="opacity:1" fill="#e69fab" d="M 114.5,275.5 C 114.259,277.886 114.925,279.886 116.5,281.5C 107.731,281.1 102.731,285.267 101.5,294C 95.8333,294.667 90.1667,294.667 84.5,294C 83.3289,285.334 78.3289,281.168 69.5,281.5C 70.1667,280.833 70.8333,280.167 71.5,279.5C 74.7349,280.184 77.9016,281.184 81,282.5C 88.6401,279.94 96.3068,279.94 104,282.5C 106.919,280.928 110.085,280.261 113.5,280.5C 113.216,278.585 113.549,276.919 114.5,275.5 Z"/></g>
<g><path style="opacity:1" fill="#fcfafb" d="M 69.5,281.5 C 78.3289,281.168 83.3289,285.334 84.5,294C 90.1667,294.667 95.8333,294.667 101.5,294C 102.731,285.267 107.731,281.1 116.5,281.5C 117.993,282.312 118.66,283.645 118.5,285.5C 117.669,291.671 116.669,297.671 115.5,303.5C 100.5,303.5 85.5,303.5 70.5,303.5C 69.7784,303.082 69.2784,302.416 69,301.5C 68.6781,296.148 68.1781,290.814 67.5,285.5C 67.3402,283.645 68.0069,282.312 69.5,281.5 Z"/></g>
<g><path style="opacity:1" fill="#fdfafb" d="M 86.5,282.5 C 92.3343,282.05 98.001,282.717 103.5,284.5C 102.305,286.751 101.305,289.085 100.5,291.5C 95.2079,292.495 89.8746,292.828 84.5,292.5C 84.8956,289.518 84.2289,286.851 82.5,284.5C 83.9492,283.828 85.2825,283.161 86.5,282.5 Z"/></g>
<g><path style="opacity:1" fill="#f9b730" d="M 303.5,282.5 C 303.675,284.621 303.341,286.621 302.5,288.5C 297.87,292.293 293.37,296.293 289,300.5C 282.543,295.045 276.376,289.212 270.5,283C 281.495,282.5 292.495,282.333 303.5,282.5 Z"/></g>
<g><path style="opacity:1" fill="#df6e7d" d="M 138.5,290.5 C 138.307,294.007 138.973,297.34 140.5,300.5C 140.333,300.833 140.167,301.167 140,301.5C 138.824,299.804 137.657,298.138 136.5,296.5C 137.167,294.5 137.833,292.5 138.5,290.5 Z"/></g>
<g><path style="opacity:1" fill="#e72747" d="M 63.5,249.5 C 64.8333,249.5 66.1667,249.5 67.5,249.5C 67.3983,257.444 68.3983,265.111 70.5,272.5C 71.4682,274.607 71.8016,276.941 71.5,279.5C 70.8333,280.167 70.1667,280.833 69.5,281.5C 68.0069,282.312 67.3402,283.645 67.5,285.5C 68.1781,290.814 68.6781,296.148 69,301.5C 69.2784,302.416 69.7784,303.082 70.5,303.5C 70.8564,305.19 71.8564,306.19 73.5,306.5C 73.5,308.833 73.5,311.167 73.5,313.5C 70.1667,313.5 66.8333,313.5 63.5,313.5C 63.5,292.167 63.5,270.833 63.5,249.5 Z"/></g>
<g><path style="opacity:1" fill="#fad590" d="M 267.5,281.5 C 279.678,281.172 291.678,281.505 303.5,282.5C 292.495,282.333 281.495,282.5 270.5,283C 276.376,289.212 282.543,295.045 289,300.5C 293.37,296.293 297.87,292.293 302.5,288.5C 304.47,296.769 305.136,305.435 304.5,314.5C 288.325,314.83 272.325,314.496 256.5,313.5C 263.532,313.83 270.532,313.497 277.5,312.5C 280.833,309.167 284.167,305.833 287.5,302.5C 280.595,295.659 273.929,288.659 267.5,281.5 Z"/></g>
<g><path style="opacity:1" fill="#fbb531" d="M 301.5,290.5 C 303.465,297.76 304.132,305.427 303.5,313.5C 298.332,311.014 293.999,307.347 290.5,302.5C 294.189,298.48 297.855,294.48 301.5,290.5 Z"/></g>
<g><path style="opacity:1" fill="#e6b5ba" d="M 70.5,303.5 C 85.5,303.5 100.5,303.5 115.5,303.5C 114.5,304.5 113.5,305.5 112.5,306.5C 99.5,306.5 86.5,306.5 73.5,306.5C 71.8564,306.19 70.8564,305.19 70.5,303.5 Z"/></g>
<g><path style="opacity:1" fill="#fab532" d="M 287.5,304.5 C 291.635,306.024 294.968,308.691 297.5,312.5C 291.833,313.833 286.167,313.833 280.5,312.5C 282.907,309.769 285.241,307.102 287.5,304.5 Z"/></g>
<g><path style="opacity:1" fill="#f9b734" d="M 243.5,310.5 C 244.708,311.234 246.041,311.567 247.5,311.5C 241.25,313.459 234.584,314.126 227.5,313.5C 227.5,312.5 227.5,311.5 227.5,310.5C 232.833,310.5 238.167,310.5 243.5,310.5 Z"/></g>
<g><path style="opacity:1" fill="#51b1a5" d="M 144.5,309.5 C 170.5,309.5 196.5,309.5 222.5,309.5C 222.5,311.167 222.5,312.833 222.5,314.5C 196.5,314.5 170.5,314.5 144.5,314.5C 144.5,312.833 144.5,311.167 144.5,309.5 Z"/></g>
<g><path style="opacity:1" fill="#ee7f8f" d="M 63.5,249.5 C 63.5,270.833 63.5,292.167 63.5,313.5C 66.8333,313.5 70.1667,313.5 73.5,313.5C 73.5,311.167 73.5,308.833 73.5,306.5C 86.5,306.5 99.5,306.5 112.5,306.5C 112.5,308.833 112.5,311.167 112.5,313.5C 118.5,313.5 124.5,313.5 130.5,313.5C 124.355,314.49 118.022,314.823 111.5,314.5C 111.5,312.167 111.5,309.833 111.5,307.5C 110.5,307.5 109.5,307.5 108.5,307.5C 108.5,309.833 108.5,312.167 108.5,314.5C 98.1667,314.5 87.8333,314.5 77.5,314.5C 77.5,312.167 77.5,309.833 77.5,307.5C 76.5,307.5 75.5,307.5 74.5,307.5C 74.5,309.833 74.5,312.167 74.5,314.5C 70.5,314.5 66.5,314.5 62.5,314.5C 62.1693,292.66 62.5027,270.994 63.5,249.5 Z"/></g>
<g><path style="opacity:1" fill="#e02a46" d="M 78.5,307.5 C 88.1667,307.5 97.8333,307.5 107.5,307.5C 107.5,309.5 107.5,311.5 107.5,313.5C 97.8333,313.5 88.1667,313.5 78.5,313.5C 78.5,311.5 78.5,309.5 78.5,307.5 Z"/></g>
<g><path style="opacity:1" fill="#e57589" d="M 138.5,311.5 C 140.048,311.821 140.715,312.821 140.5,314.5C 135.149,315.071 134.482,314.071 138.5,311.5 Z"/></g>
<g><path style="opacity:1" fill="#fdd486" d="M 243.5,310.5 C 238.167,310.5 232.833,310.5 227.5,310.5C 227.5,311.5 227.5,312.5 227.5,313.5C 234.584,314.126 241.25,313.459 247.5,311.5C 248.643,311.908 249.643,312.575 250.5,313.5C 242.528,314.498 234.528,314.831 226.5,314.5C 226.5,312.833 226.5,311.167 226.5,309.5C 232.358,309.178 238.025,309.511 243.5,310.5 Z"/></g>
</svg>
